<?xml version="1.0" encoding="UTF-8" standalone="no"?>
<!DOCTYPE svg PUBLIC "-//W3C//DTD SVG 1.1//EN"
 "http://www.w3.org/Graphics/SVG/1.1/DTD/svg11.dtd">
<!-- Generated by graphviz version 2.47.0 (20210316.0004)
 -->
<!-- Title: dependencies Pages: 1 -->
<svg width="521pt" height="211pt"
 viewBox="0.00 0.00 521.00 211.00" xmlns="http://www.w3.org/2000/svg" xmlns:xlink="http://www.w3.org/1999/xlink">
<g id="graph0" class="graph" transform="scale(1 1) rotate(0) translate(4 207)">
<title>dependencies</title>
<polygon fill="white" stroke="transparent" points="-4,4 -4,-207 517,-207 517,4 -4,4"/>
<text text-anchor="start" x="235.51" y="-42.4" font-family="Times-12" font-weight="bold" font-size="14.00">Legend</text>
<polygon fill="#ffffb3" stroke="transparent" points="22.5,-10 22.5,-30 42.5,-30 42.5,-10 22.5,-10"/>
<text text-anchor="start" x="46.13" y="-15.4" font-family="Times-12" font-size="14.00"> &#160;Declarations</text>
<polygon fill="#8dd3c7" stroke="transparent" points="135.5,-10 135.5,-30 155.5,-30 155.5,-10 135.5,-10"/>
<text text-anchor="start" x="159.23" y="-15.4" font-family="Times-12" font-size="14.00"> &#160;Module</text>
<polygon fill="#80b1d3" stroke="transparent" points="221.5,-10 221.5,-30 241.5,-30 241.5,-10 221.5,-10"/>
<text text-anchor="start" x="245.28" y="-15.4" font-family="Times-12" font-size="14.00"> &#160;Bootstrap</text>
<polygon fill="#fdb462" stroke="transparent" points="318.5,-10 318.5,-30 338.5,-30 338.5,-10 318.5,-10"/>
<text text-anchor="start" x="342.17" y="-15.4" font-family="Times-12" font-size="14.00"> &#160;Providers</text>
<polygon fill="#fb8072" stroke="transparent" points="414.5,-10 414.5,-30 434.5,-30 434.5,-10 414.5,-10"/>
<text text-anchor="start" x="438.23" y="-15.4" font-family="Times-12" font-size="14.00"> &#160;Exports</text>
<g id="clust1" class="cluster">
<title>cluster_ReportsModule</title>
<polygon fill="none" stroke="black" stroke-dasharray="1,5" points="8,-70 8,-195 505,-195 505,-70 8,-70"/>
</g>
<g id="clust6" class="cluster">
<title>cluster_ReportsModule_providers</title>
<polygon fill="none" stroke="black" points="341,-78 341,-130 497,-130 497,-78 341,-78"/>
</g>
<g id="clust3" class="cluster">
<title>cluster_ReportsModule_imports</title>
<polygon fill="none" stroke="black" points="16,-78 16,-130 333,-130 333,-78 16,-78"/>
</g>
<!-- AuthModule -->
<g id="node1" class="node">
<title>AuthModule</title>
<polygon fill="#8dd3c7" stroke="black" points="324.55,-122 321.55,-126 300.55,-126 297.55,-122 237.45,-122 237.45,-86 324.55,-86 324.55,-122"/>
<text text-anchor="middle" x="281" y="-99.8" font-family="Times,serif" font-size="14.00">AuthModule</text>
</g>
<!-- ReportsModule -->
<g id="node4" class="node">
<title>ReportsModule</title>
<polygon fill="#8dd3c7" stroke="black" points="280.6,-187 277.6,-191 256.6,-191 253.6,-187 177.4,-187 177.4,-151 280.6,-151 280.6,-187"/>
<text text-anchor="middle" x="229" y="-164.8" font-family="Times,serif" font-size="14.00">ReportsModule</text>
</g>
<!-- AuthModule&#45;&gt;ReportsModule -->
<g id="edge1" class="edge">
<title>AuthModule&#45;&gt;ReportsModule</title>
<path fill="none" stroke="black" d="M258.89,-122.11C258.89,-122.11 258.89,-140.99 258.89,-140.99"/>
<polygon fill="black" stroke="black" points="255.39,-140.99 258.89,-150.99 262.39,-140.99 255.39,-140.99"/>
</g>
<!-- AwsModule -->
<g id="node2" class="node">
<title>AwsModule</title>
<polygon fill="#8dd3c7" stroke="black" points="219.71,-122 216.71,-126 195.71,-126 192.71,-122 134.29,-122 134.29,-86 219.71,-86 219.71,-122"/>
<text text-anchor="middle" x="177" y="-99.8" font-family="Times,serif" font-size="14.00">AwsModule</text>
</g>
<!-- AwsModule&#45;&gt;ReportsModule -->
<g id="edge2" class="edge">
<title>AwsModule&#45;&gt;ReportsModule</title>
<path fill="none" stroke="black" d="M198.53,-122.11C198.53,-122.11 198.53,-140.99 198.53,-140.99"/>
<polygon fill="black" stroke="black" points="195.03,-140.99 198.53,-150.99 202.03,-140.99 195.03,-140.99"/>
</g>
<!-- AxiosModule -->
<g id="node3" class="node">
<title>AxiosModule</title>
<polygon fill="#8dd3c7" stroke="black" points="116.49,-122 113.49,-126 92.49,-126 89.49,-122 23.51,-122 23.51,-86 116.49,-86 116.49,-122"/>
<text text-anchor="middle" x="70" y="-99.8" font-family="Times,serif" font-size="14.00">AxiosModule</text>
</g>
<!-- AxiosModule&#45;&gt;ReportsModule -->
<g id="edge3" class="edge">
<title>AxiosModule&#45;&gt;ReportsModule</title>
<path fill="none" stroke="black" d="M70,-122.11C70,-141.34 70,-169 70,-169 70,-169 167.38,-169 167.38,-169"/>
<polygon fill="black" stroke="black" points="167.38,-172.5 177.38,-169 167.38,-165.5 167.38,-172.5"/>
</g>
<!-- ReportsService -->
<g id="node5" class="node">
<title>ReportsService</title>
<ellipse fill="#fdb462" stroke="black" cx="419" cy="-104" rx="70.06" ry="18"/>
<text text-anchor="middle" x="419" y="-99.8" font-family="Times,serif" font-size="14.00">ReportsService</text>
</g>
<!-- ReportsService&#45;&gt;ReportsModule -->
<g id="edge4" class="edge">
<title>ReportsService&#45;&gt;ReportsModule</title>
<path fill="none" stroke="black" d="M419,-122.11C419,-141.34 419,-169 419,-169 419,-169 290.67,-169 290.67,-169"/>
<polygon fill="black" stroke="black" points="290.67,-165.5 280.67,-169 290.67,-172.5 290.67,-165.5"/>
</g>
</g>
</svg>
