<?xml version="1.0" encoding="UTF-8" standalone="no"?>
<!DOCTYPE svg PUBLIC "-//W3C//DTD SVG 1.1//EN"
 "http://www.w3.org/Graphics/SVG/1.1/DTD/svg11.dtd">
<!-- Generated by graphviz version 2.47.0 (20210316.0004)
 -->
<!-- Title: dependencies Pages: 1 -->
<svg width="1083pt" height="211pt"
 viewBox="0.00 0.00 1083.00 211.00" xmlns="http://www.w3.org/2000/svg" xmlns:xlink="http://www.w3.org/1999/xlink">
<g id="graph0" class="graph" transform="scale(1 1) rotate(0) translate(4 207)">
<title>dependencies</title>
<polygon fill="white" stroke="transparent" points="-4,4 -4,-207 1079,-207 1079,4 -4,4"/>
<text text-anchor="start" x="516.51" y="-42.4" font-family="Times-12" font-weight="bold" font-size="14.00">Legend</text>
<polygon fill="#ffffb3" stroke="transparent" points="303.5,-10 303.5,-30 323.5,-30 323.5,-10 303.5,-10"/>
<text text-anchor="start" x="327.13" y="-15.4" font-family="Times-12" font-size="14.00"> &#160;Declarations</text>
<polygon fill="#8dd3c7" stroke="transparent" points="416.5,-10 416.5,-30 436.5,-30 436.5,-10 416.5,-10"/>
<text text-anchor="start" x="440.23" y="-15.4" font-family="Times-12" font-size="14.00"> &#160;Module</text>
<polygon fill="#80b1d3" stroke="transparent" points="502.5,-10 502.5,-30 522.5,-30 522.5,-10 502.5,-10"/>
<text text-anchor="start" x="526.28" y="-15.4" font-family="Times-12" font-size="14.00"> &#160;Bootstrap</text>
<polygon fill="#fdb462" stroke="transparent" points="599.5,-10 599.5,-30 619.5,-30 619.5,-10 599.5,-10"/>
<text text-anchor="start" x="623.17" y="-15.4" font-family="Times-12" font-size="14.00"> &#160;Providers</text>
<polygon fill="#fb8072" stroke="transparent" points="695.5,-10 695.5,-30 715.5,-30 715.5,-10 695.5,-10"/>
<text text-anchor="start" x="719.23" y="-15.4" font-family="Times-12" font-size="14.00"> &#160;Exports</text>
<g id="clust1" class="cluster">
<title>cluster_AmcModule</title>
<polygon fill="none" stroke="black" stroke-dasharray="1,5" points="8,-70 8,-195 1067,-195 1067,-70 8,-70"/>
</g>
<g id="clust3" class="cluster">
<title>cluster_AmcModule_imports</title>
<polygon fill="none" stroke="black" points="742,-78 742,-130 1059,-130 1059,-78 742,-78"/>
</g>
<g id="clust6" class="cluster">
<title>cluster_AmcModule_providers</title>
<polygon fill="none" stroke="black" points="16,-78 16,-130 734,-130 734,-78 16,-78"/>
</g>
<!-- AuthModule -->
<g id="node1" class="node">
<title>AuthModule</title>
<polygon fill="#8dd3c7" stroke="black" points="1050.55,-122 1047.55,-126 1026.55,-126 1023.55,-122 963.45,-122 963.45,-86 1050.55,-86 1050.55,-122"/>
<text text-anchor="middle" x="1007" y="-99.8" font-family="Times,serif" font-size="14.00">AuthModule</text>
</g>
<!-- AmcModule -->
<g id="node4" class="node">
<title>AmcModule</title>
<polygon fill="#8dd3c7" stroke="black" points="694.26,-187 691.26,-191 670.26,-191 667.26,-187 607.74,-187 607.74,-151 694.26,-151 694.26,-187"/>
<text text-anchor="middle" x="651" y="-164.8" font-family="Times,serif" font-size="14.00">AmcModule</text>
</g>
<!-- AuthModule&#45;&gt;AmcModule -->
<g id="edge1" class="edge">
<title>AuthModule&#45;&gt;AmcModule</title>
<path fill="none" stroke="black" d="M1007,-122.29C1007,-144.21 1007,-178 1007,-178 1007,-178 704.3,-178 704.3,-178"/>
<polygon fill="black" stroke="black" points="704.3,-174.5 694.3,-178 704.3,-181.5 704.3,-174.5"/>
</g>
<!-- AwsModule -->
<g id="node2" class="node">
<title>AwsModule</title>
<polygon fill="#8dd3c7" stroke="black" points="945.71,-122 942.71,-126 921.71,-126 918.71,-122 860.29,-122 860.29,-86 945.71,-86 945.71,-122"/>
<text text-anchor="middle" x="903" y="-99.8" font-family="Times,serif" font-size="14.00">AwsModule</text>
</g>
<!-- AwsModule&#45;&gt;AmcModule -->
<g id="edge2" class="edge">
<title>AwsModule&#45;&gt;AmcModule</title>
<path fill="none" stroke="black" d="M903,-122.11C903,-141.34 903,-169 903,-169 903,-169 704.32,-169 704.32,-169"/>
<polygon fill="black" stroke="black" points="704.32,-165.5 694.32,-169 704.32,-172.5 704.32,-165.5"/>
</g>
<!-- AxiosModule -->
<g id="node3" class="node">
<title>AxiosModule</title>
<polygon fill="#8dd3c7" stroke="black" points="842.49,-122 839.49,-126 818.49,-126 815.49,-122 749.51,-122 749.51,-86 842.49,-86 842.49,-122"/>
<text text-anchor="middle" x="796" y="-99.8" font-family="Times,serif" font-size="14.00">AxiosModule</text>
</g>
<!-- AxiosModule&#45;&gt;AmcModule -->
<g id="edge3" class="edge">
<title>AxiosModule&#45;&gt;AmcModule</title>
<path fill="none" stroke="black" d="M796,-122.03C796,-138.4 796,-160 796,-160 796,-160 704.5,-160 704.5,-160"/>
<polygon fill="black" stroke="black" points="704.5,-156.5 694.5,-160 704.5,-163.5 704.5,-156.5"/>
</g>
<!-- AdsAuthService -->
<g id="node5" class="node">
<title>AdsAuthService</title>
<ellipse fill="#fdb462" stroke="black" cx="651" cy="-104" rx="74.72" ry="18"/>
<text text-anchor="middle" x="651" y="-99.8" font-family="Times,serif" font-size="14.00">AdsAuthService</text>
</g>
<!-- AdsAuthService&#45;&gt;AmcModule -->
<g id="edge4" class="edge">
<title>AdsAuthService&#45;&gt;AmcModule</title>
<path fill="none" stroke="black" d="M651,-122.11C651,-122.11 651,-140.99 651,-140.99"/>
<polygon fill="black" stroke="black" points="647.5,-140.99 651,-150.99 654.5,-140.99 647.5,-140.99"/>
</g>
<!-- AutomatedService -->
<g id="node6" class="node">
<title>AutomatedService</title>
<ellipse fill="#fdb462" stroke="black" cx="475" cy="-104" rx="82.8" ry="18"/>
<text text-anchor="middle" x="475" y="-99.8" font-family="Times,serif" font-size="14.00">AutomatedService</text>
</g>
<!-- AutomatedService&#45;&gt;AmcModule -->
<g id="edge5" class="edge">
<title>AutomatedService&#45;&gt;AmcModule</title>
<path fill="none" stroke="black" d="M475,-122.03C475,-138.4 475,-160 475,-160 475,-160 597.49,-160 597.49,-160"/>
<polygon fill="black" stroke="black" points="597.49,-163.5 607.49,-160 597.49,-156.5 597.49,-163.5"/>
</g>
<!-- ExecutionsService -->
<g id="node7" class="node">
<title>ExecutionsService</title>
<ellipse fill="#fdb462" stroke="black" cx="291" cy="-104" rx="82.8" ry="18"/>
<text text-anchor="middle" x="291" y="-99.8" font-family="Times,serif" font-size="14.00">ExecutionsService</text>
</g>
<!-- ExecutionsService&#45;&gt;AmcModule -->
<g id="edge6" class="edge">
<title>ExecutionsService&#45;&gt;AmcModule</title>
<path fill="none" stroke="black" d="M291,-122.11C291,-141.34 291,-169 291,-169 291,-169 597.58,-169 597.58,-169"/>
<polygon fill="black" stroke="black" points="597.58,-172.5 607.58,-169 597.58,-165.5 597.58,-172.5"/>
</g>
<!-- WorkflowsService -->
<g id="node8" class="node">
<title>WorkflowsService</title>
<ellipse fill="#fdb462" stroke="black" cx="107" cy="-104" rx="83.37" ry="18"/>
<text text-anchor="middle" x="107" y="-99.8" font-family="Times,serif" font-size="14.00">WorkflowsService</text>
</g>
<!-- WorkflowsService&#45;&gt;AmcModule -->
<g id="edge7" class="edge">
<title>WorkflowsService&#45;&gt;AmcModule</title>
<path fill="none" stroke="black" d="M107,-122.29C107,-144.21 107,-178 107,-178 107,-178 597.4,-178 597.4,-178"/>
<polygon fill="black" stroke="black" points="597.4,-181.5 607.4,-178 597.4,-174.5 597.4,-181.5"/>
</g>
</g>
</svg>
