<?xml version="1.0" encoding="UTF-8" standalone="no"?>
<!DOCTYPE svg PUBLIC "-//W3C//DTD SVG 1.1//EN"
 "http://www.w3.org/Graphics/SVG/1.1/DTD/svg11.dtd">
<!-- Generated by graphviz version 2.47.0 (20210316.0004)
 -->
<!-- Title: dependencies Pages: 1 -->
<svg width="507pt" height="211pt"
 viewBox="0.00 0.00 507.00 211.00" xmlns="http://www.w3.org/2000/svg" xmlns:xlink="http://www.w3.org/1999/xlink">
<g id="graph0" class="graph" transform="scale(1 1) rotate(0) translate(4 207)">
<title>dependencies</title>
<polygon fill="white" stroke="transparent" points="-4,4 -4,-207 503,-207 503,4 -4,4"/>
<text text-anchor="start" x="228.51" y="-42.4" font-family="Times-12" font-weight="bold" font-size="14.00">Legend</text>
<polygon fill="#ffffb3" stroke="transparent" points="15.5,-10 15.5,-30 35.5,-30 35.5,-10 15.5,-10"/>
<text text-anchor="start" x="39.13" y="-15.4" font-family="Times-12" font-size="14.00"> &#160;Declarations</text>
<polygon fill="#8dd3c7" stroke="transparent" points="128.5,-10 128.5,-30 148.5,-30 148.5,-10 128.5,-10"/>
<text text-anchor="start" x="152.23" y="-15.4" font-family="Times-12" font-size="14.00"> &#160;Module</text>
<polygon fill="#80b1d3" stroke="transparent" points="214.5,-10 214.5,-30 234.5,-30 234.5,-10 214.5,-10"/>
<text text-anchor="start" x="238.28" y="-15.4" font-family="Times-12" font-size="14.00"> &#160;Bootstrap</text>
<polygon fill="#fdb462" stroke="transparent" points="311.5,-10 311.5,-30 331.5,-30 331.5,-10 311.5,-10"/>
<text text-anchor="start" x="335.17" y="-15.4" font-family="Times-12" font-size="14.00"> &#160;Providers</text>
<polygon fill="#fb8072" stroke="transparent" points="407.5,-10 407.5,-30 427.5,-30 427.5,-10 407.5,-10"/>
<text text-anchor="start" x="431.23" y="-15.4" font-family="Times-12" font-size="14.00"> &#160;Exports</text>
<g id="clust1" class="cluster">
<title>cluster_AppModule</title>
<polygon fill="none" stroke="black" stroke-dasharray="1,5" points="8,-70 8,-195 491,-195 491,-70 8,-70"/>
</g>
<g id="clust3" class="cluster">
<title>cluster_AppModule_imports</title>
<polygon fill="none" stroke="black" points="154,-78 154,-130 483,-130 483,-78 154,-78"/>
</g>
<g id="clust6" class="cluster">
<title>cluster_AppModule_providers</title>
<polygon fill="none" stroke="black" points="16,-78 16,-130 146,-130 146,-78 16,-78"/>
</g>
<!-- AmcModule -->
<g id="node1" class="node">
<title>AmcModule</title>
<polygon fill="#8dd3c7" stroke="black" points="475.26,-122 472.26,-126 451.26,-126 448.26,-122 388.74,-122 388.74,-86 475.26,-86 475.26,-122"/>
<text text-anchor="middle" x="432" y="-99.8" font-family="Times,serif" font-size="14.00">AmcModule</text>
</g>
<!-- AppModule -->
<g id="node4" class="node">
<title>AppModule</title>
<polygon fill="#8dd3c7" stroke="black" points="311.66,-187 308.66,-191 287.66,-191 284.66,-187 228.34,-187 228.34,-151 311.66,-151 311.66,-187"/>
<text text-anchor="middle" x="270" y="-164.8" font-family="Times,serif" font-size="14.00">AppModule</text>
</g>
<!-- AmcModule&#45;&gt;AppModule -->
<g id="edge1" class="edge">
<title>AmcModule&#45;&gt;AppModule</title>
<path fill="none" stroke="black" d="M432,-122.11C432,-141.34 432,-169 432,-169 432,-169 321.72,-169 321.72,-169"/>
<polygon fill="black" stroke="black" points="321.72,-165.5 311.72,-169 321.72,-172.5 321.72,-165.5"/>
</g>
<!-- AuthModule -->
<g id="node2" class="node">
<title>AuthModule</title>
<polygon fill="#8dd3c7" stroke="black" points="370.55,-122 367.55,-126 346.55,-126 343.55,-122 283.45,-122 283.45,-86 370.55,-86 370.55,-122"/>
<text text-anchor="middle" x="327" y="-99.8" font-family="Times,serif" font-size="14.00">AuthModule</text>
</g>
<!-- AuthModule&#45;&gt;AppModule -->
<g id="edge2" class="edge">
<title>AuthModule&#45;&gt;AppModule</title>
<path fill="none" stroke="black" d="M297.53,-122.11C297.53,-122.11 297.53,-140.99 297.53,-140.99"/>
<polygon fill="black" stroke="black" points="294.03,-140.99 297.53,-150.99 301.03,-140.99 294.03,-140.99"/>
</g>
<!-- ReportsModule -->
<g id="node3" class="node">
<title>ReportsModule</title>
<polygon fill="#8dd3c7" stroke="black" points="265.6,-122 262.6,-126 241.6,-126 238.6,-122 162.4,-122 162.4,-86 265.6,-86 265.6,-122"/>
<text text-anchor="middle" x="214" y="-99.8" font-family="Times,serif" font-size="14.00">ReportsModule</text>
</g>
<!-- ReportsModule&#45;&gt;AppModule -->
<g id="edge3" class="edge">
<title>ReportsModule&#45;&gt;AppModule</title>
<path fill="none" stroke="black" d="M246.86,-122.11C246.86,-122.11 246.86,-140.99 246.86,-140.99"/>
<polygon fill="black" stroke="black" points="243.36,-140.99 246.86,-150.99 250.36,-140.99 243.36,-140.99"/>
</g>
<!-- AppService -->
<g id="node5" class="node">
<title>AppService</title>
<ellipse fill="#fdb462" stroke="black" cx="81" cy="-104" rx="56.74" ry="18"/>
<text text-anchor="middle" x="81" y="-99.8" font-family="Times,serif" font-size="14.00">AppService</text>
</g>
<!-- AppService&#45;&gt;AppModule -->
<g id="edge4" class="edge">
<title>AppService&#45;&gt;AppModule</title>
<path fill="none" stroke="black" d="M81,-122.11C81,-141.34 81,-169 81,-169 81,-169 218.05,-169 218.05,-169"/>
<polygon fill="black" stroke="black" points="218.05,-172.5 228.05,-169 218.05,-165.5 218.05,-172.5"/>
</g>
</g>
</svg>
