<?xml version="1.0" encoding="UTF-8" standalone="no"?>
<!DOCTYPE svg PUBLIC "-//W3C//DTD SVG 1.1//EN"
 "http://www.w3.org/Graphics/SVG/1.1/DTD/svg11.dtd">
<!-- Generated by graphviz version 2.47.0 (20210316.0004)
 -->
<!-- Title: dependencies Pages: 1 -->
<svg width="2179pt" height="287pt"
 viewBox="0.00 0.00 2179.00 287.00" xmlns="http://www.w3.org/2000/svg" xmlns:xlink="http://www.w3.org/1999/xlink">
<g id="graph0" class="graph" transform="scale(1 1) rotate(0) translate(4 283)">
<title>dependencies</title>
<polygon fill="white" stroke="transparent" points="-4,4 -4,-283 2175,-283 2175,4 -4,4"/>
<text text-anchor="start" x="1064.51" y="-42.4" font-family="Times-12" font-weight="bold" font-size="14.00">Legend</text>
<polygon fill="#ffffb3" stroke="transparent" points="851.5,-10 851.5,-30 871.5,-30 871.5,-10 851.5,-10"/>
<text text-anchor="start" x="875.13" y="-15.4" font-family="Times-12" font-size="14.00"> &#160;Declarations</text>
<polygon fill="#8dd3c7" stroke="transparent" points="964.5,-10 964.5,-30 984.5,-30 984.5,-10 964.5,-10"/>
<text text-anchor="start" x="988.23" y="-15.4" font-family="Times-12" font-size="14.00"> &#160;Module</text>
<polygon fill="#80b1d3" stroke="transparent" points="1050.5,-10 1050.5,-30 1070.5,-30 1070.5,-10 1050.5,-10"/>
<text text-anchor="start" x="1074.28" y="-15.4" font-family="Times-12" font-size="14.00"> &#160;Bootstrap</text>
<polygon fill="#fdb462" stroke="transparent" points="1147.5,-10 1147.5,-30 1167.5,-30 1167.5,-10 1147.5,-10"/>
<text text-anchor="start" x="1171.17" y="-15.4" font-family="Times-12" font-size="14.00"> &#160;Providers</text>
<polygon fill="#fb8072" stroke="transparent" points="1243.5,-10 1243.5,-30 1263.5,-30 1263.5,-10 1243.5,-10"/>
<text text-anchor="start" x="1267.23" y="-15.4" font-family="Times-12" font-size="14.00"> &#160;Exports</text>
<g id="clust1" class="cluster">
<title>cluster_AmcModule</title>
<polygon fill="none" stroke="black" stroke-dasharray="1,5" points="8,-70 8,-206 1067,-206 1067,-70 8,-70"/>
</g>
<g id="clust3" class="cluster">
<title>cluster_AmcModule_imports</title>
<polygon fill="none" stroke="black" points="742,-78 742,-130 1059,-130 1059,-78 742,-78"/>
</g>
<g id="clust6" class="cluster">
<title>cluster_AmcModule_providers</title>
<polygon fill="none" stroke="black" points="16,-78 16,-130 734,-130 734,-78 16,-78"/>
</g>
<g id="clust7" class="cluster">
<title>cluster_AppModule</title>
<polygon fill="none" stroke="black" stroke-dasharray="1,5" points="1871,-146 1871,-271 2145,-271 2145,-146 1871,-146"/>
</g>
<g id="clust9" class="cluster">
<title>cluster_AppModule_imports</title>
<polygon fill="none" stroke="black" points="2017,-154 2017,-206 2137,-206 2137,-154 2017,-154"/>
</g>
<g id="clust12" class="cluster">
<title>cluster_AppModule_providers</title>
<polygon fill="none" stroke="black" points="1879,-154 1879,-206 2009,-206 2009,-154 1879,-154"/>
</g>
<g id="clust13" class="cluster">
<title>cluster_AuthModule</title>
<polygon fill="none" stroke="black" stroke-dasharray="1,5" points="1075,-146 1075,-214 1339,-214 1339,-146 1075,-146"/>
</g>
<g id="clust16" class="cluster">
<title>cluster_AuthModule_exports</title>
<polygon fill="none" stroke="black" points="1225,-154 1225,-206 1331,-206 1331,-154 1225,-154"/>
</g>
<g id="clust18" class="cluster">
<title>cluster_AuthModule_providers</title>
<polygon fill="none" stroke="black" points="1083,-154 1083,-206 1217,-206 1217,-154 1083,-154"/>
</g>
<g id="clust19" class="cluster">
<title>cluster_AwsModule</title>
<polygon fill="none" stroke="black" stroke-dasharray="1,5" points="1347,-146 1347,-214 1579,-214 1579,-146 1347,-146"/>
</g>
<g id="clust22" class="cluster">
<title>cluster_AwsModule_exports</title>
<polygon fill="none" stroke="black" points="1479,-154 1479,-206 1571,-206 1571,-154 1479,-154"/>
</g>
<g id="clust24" class="cluster">
<title>cluster_AwsModule_providers</title>
<polygon fill="none" stroke="black" points="1355,-154 1355,-206 1471,-206 1471,-154 1355,-154"/>
</g>
<g id="clust25" class="cluster">
<title>cluster_AxiosModule</title>
<polygon fill="none" stroke="black" stroke-dasharray="1,5" points="1587,-146 1587,-214 1863,-214 1863,-146 1587,-146"/>
</g>
<g id="clust28" class="cluster">
<title>cluster_AxiosModule_exports</title>
<polygon fill="none" stroke="black" points="1745,-154 1745,-206 1855,-206 1855,-154 1745,-154"/>
</g>
<g id="clust30" class="cluster">
<title>cluster_AxiosModule_providers</title>
<polygon fill="none" stroke="black" points="1595,-154 1595,-206 1737,-206 1737,-154 1595,-154"/>
</g>
<g id="clust31" class="cluster">
<title>cluster_ReportsModule</title>
<polygon fill="none" stroke="black" stroke-dasharray="1,5" points="1991,-70 1991,-138 2163,-138 2163,-70 1991,-70"/>
</g>
<g id="clust36" class="cluster">
<title>cluster_ReportsModule_providers</title>
<polygon fill="none" stroke="black" points="1999,-78 1999,-130 2155,-130 2155,-78 1999,-78"/>
</g>
<!-- AuthModule -->
<g id="node1" class="node">
<title>AuthModule</title>
<polygon fill="#8dd3c7" stroke="black" points="837.55,-122 834.55,-126 813.55,-126 810.55,-122 750.45,-122 750.45,-86 837.55,-86 837.55,-122"/>
<text text-anchor="middle" x="794" y="-99.8" font-family="Times,serif" font-size="14.00">AuthModule</text>
</g>
<!-- AmcModule -->
<g id="node4" class="node">
<title>AmcModule</title>
<polygon fill="#8dd3c7" stroke="black" points="730.26,-198 727.26,-202 706.26,-202 703.26,-198 643.74,-198 643.74,-162 730.26,-162 730.26,-198"/>
<text text-anchor="middle" x="687" y="-175.8" font-family="Times,serif" font-size="14.00">AmcModule</text>
</g>
<!-- AuthModule&#45;&gt;AmcModule -->
<g id="edge1" class="edge">
<title>AuthModule&#45;&gt;AmcModule</title>
<path fill="none" stroke="black" d="M764.82,-122.04C764.82,-143.66 764.82,-177 764.82,-177 764.82,-177 740.46,-177 740.46,-177"/>
<polygon fill="black" stroke="black" points="740.46,-173.5 730.46,-177 740.46,-180.5 740.46,-173.5"/>
</g>
<!-- ReportsModule -->
<g id="node9" class="node">
<title>ReportsModule</title>
<polygon fill="#8dd3c7" stroke="black" points="2128.6,-198 2125.6,-202 2104.6,-202 2101.6,-198 2025.4,-198 2025.4,-162 2128.6,-162 2128.6,-198"/>
<text text-anchor="middle" x="2077" y="-175.8" font-family="Times,serif" font-size="14.00">ReportsModule</text>
</g>
<!-- AuthModule&#45;&gt;ReportsModule -->
<g id="edge18" class="edge">
<title>AuthModule&#45;&gt;ReportsModule</title>
<path fill="none" stroke="black" d="M808.59,-122.42C808.59,-131.28 808.59,-140 808.59,-140 808.59,-140 2046.07,-140 2046.07,-140 2046.07,-140 2046.07,-151.87 2046.07,-151.87"/>
<polygon fill="black" stroke="black" points="2042.57,-151.87 2046.07,-161.87 2049.57,-151.87 2042.57,-151.87"/>
</g>
<!-- AppModule -->
<g id="node10" class="node">
<title>AppModule</title>
<polygon fill="#8dd3c7" stroke="black" points="1973.66,-263 1970.66,-267 1949.66,-267 1946.66,-263 1890.34,-263 1890.34,-227 1973.66,-227 1973.66,-263"/>
<text text-anchor="middle" x="1932" y="-240.8" font-family="Times,serif" font-size="14.00">AppModule</text>
</g>
<!-- AuthModule&#45;&gt;AppModule -->
<g id="edge9" class="edge">
<title>AuthModule&#45;&gt;AppModule</title>
<path fill="none" stroke="black" d="M779.41,-122.21C779.41,-159.06 779.41,-239 779.41,-239 779.41,-239 1880.3,-239 1880.3,-239"/>
<polygon fill="black" stroke="black" points="1880.3,-242.5 1890.3,-239 1880.3,-235.5 1880.3,-242.5"/>
</g>
<!-- AuthService  -->
<g id="node12" class="node">
<title>AuthService </title>
<polygon fill="#fb8072" stroke="black" points="1322.98,-198 1233.02,-198 1233.02,-162 1322.98,-162 1322.98,-198"/>
<text text-anchor="middle" x="1278" y="-175.8" font-family="Times,serif" font-size="14.00">AuthService </text>
</g>
<!-- AuthModule&#45;&gt;AuthService  -->
<g id="edge12" class="edge">
<title>AuthModule&#45;&gt;AuthService </title>
<path fill="none" stroke="black" stroke-dasharray="5,2" d="M794,-122.24C794,-137.57 794,-157 794,-157 794,-157 1278,-157 1278,-157 1278,-157 1278,-157.49 1278,-157.49"/>
<polygon fill="black" stroke="black" points="1274.5,-151.88 1278,-161.88 1281.5,-151.88 1274.5,-151.88"/>
</g>
<!-- AwsModule -->
<g id="node2" class="node">
<title>AwsModule</title>
<polygon fill="#8dd3c7" stroke="black" points="940.71,-122 937.71,-126 916.71,-126 913.71,-122 855.29,-122 855.29,-86 940.71,-86 940.71,-122"/>
<text text-anchor="middle" x="898" y="-99.8" font-family="Times,serif" font-size="14.00">AwsModule</text>
</g>
<!-- AwsModule&#45;&gt;AmcModule -->
<g id="edge2" class="edge">
<title>AwsModule&#45;&gt;AmcModule</title>
<path fill="none" stroke="black" d="M923.56,-122.15C923.56,-145.76 923.56,-184 923.56,-184 923.56,-184 740.39,-184 740.39,-184"/>
<polygon fill="black" stroke="black" points="740.39,-180.5 730.39,-184 740.39,-187.5 740.39,-180.5"/>
</g>
<!-- AwsModule&#45;&gt;ReportsModule -->
<g id="edge19" class="edge">
<title>AwsModule&#45;&gt;ReportsModule</title>
<path fill="none" stroke="black" d="M889.48,-122.14C889.48,-128.46 889.48,-134 889.48,-134 889.48,-134 2066.69,-134 2066.69,-134 2066.69,-134 2066.69,-151.82 2066.69,-151.82"/>
<polygon fill="black" stroke="black" points="2063.19,-151.82 2066.69,-161.82 2070.19,-151.82 2063.19,-151.82"/>
</g>
<!-- S3Service  -->
<g id="node14" class="node">
<title>S3Service </title>
<polygon fill="#fb8072" stroke="black" points="1563.26,-198 1486.74,-198 1486.74,-162 1563.26,-162 1563.26,-198"/>
<text text-anchor="middle" x="1525" y="-175.8" font-family="Times,serif" font-size="14.00">S3Service </text>
</g>
<!-- AwsModule&#45;&gt;S3Service  -->
<g id="edge14" class="edge">
<title>AwsModule&#45;&gt;S3Service </title>
<path fill="none" stroke="black" stroke-dasharray="5,2" d="M872.44,-122.1C872.44,-133.09 872.44,-145 872.44,-145 872.44,-145 1525,-145 1525,-145 1525,-145 1525,-151.68 1525,-151.68"/>
<polygon fill="black" stroke="black" points="1521.5,-151.68 1525,-161.68 1528.5,-151.68 1521.5,-151.68"/>
</g>
<!-- AxiosModule -->
<g id="node3" class="node">
<title>AxiosModule</title>
<polygon fill="#8dd3c7" stroke="black" points="1051.49,-122 1048.49,-126 1027.49,-126 1024.49,-122 958.51,-122 958.51,-86 1051.49,-86 1051.49,-122"/>
<text text-anchor="middle" x="1005" y="-99.8" font-family="Times,serif" font-size="14.00">AxiosModule</text>
</g>
<!-- AxiosModule&#45;&gt;AmcModule -->
<g id="edge3" class="edge">
<title>AxiosModule&#45;&gt;AmcModule</title>
<path fill="none" stroke="black" d="M1020.5,-122.03C1020.5,-147.51 1020.5,-191 1020.5,-191 1020.5,-191 740.6,-191 740.6,-191"/>
<polygon fill="black" stroke="black" points="740.6,-187.5 730.6,-191 740.6,-194.5 740.6,-187.5"/>
</g>
<!-- AxiosModule&#45;&gt;ReportsModule -->
<g id="edge20" class="edge">
<title>AxiosModule&#45;&gt;ReportsModule</title>
<path fill="none" stroke="black" d="M989.5,-122.19C989.5,-125.54 989.5,-128 989.5,-128 989.5,-128 2087.31,-128 2087.31,-128 2087.31,-128 2087.31,-151.81 2087.31,-151.81"/>
<polygon fill="black" stroke="black" points="2083.81,-151.81 2087.31,-161.81 2090.81,-151.81 2083.81,-151.81"/>
</g>
<!-- AxiosService  -->
<g id="node16" class="node">
<title>AxiosService </title>
<polygon fill="#fb8072" stroke="black" points="1847.42,-198 1752.58,-198 1752.58,-162 1847.42,-162 1847.42,-198"/>
<text text-anchor="middle" x="1800" y="-175.8" font-family="Times,serif" font-size="14.00">AxiosService </text>
</g>
<!-- AxiosModule&#45;&gt;AxiosService  -->
<g id="edge16" class="edge">
<title>AxiosModule&#45;&gt;AxiosService </title>
<path fill="none" stroke="black" stroke-dasharray="5,2" d="M1051.76,-98C1222.18,-98 1800,-98 1800,-98 1800,-98 1800,-151.8 1800,-151.8"/>
<polygon fill="black" stroke="black" points="1796.5,-151.8 1800,-161.8 1803.5,-151.8 1796.5,-151.8"/>
</g>
<!-- AmcModule&#45;&gt;AppModule -->
<g id="edge8" class="edge">
<title>AmcModule&#45;&gt;AppModule</title>
<path fill="none" stroke="black" d="M687,-198.28C687,-219.32 687,-251 687,-251 687,-251 1880.22,-251 1880.22,-251"/>
<polygon fill="black" stroke="black" points="1880.22,-254.5 1890.22,-251 1880.22,-247.5 1880.22,-254.5"/>
</g>
<!-- AdsAuthService -->
<g id="node5" class="node">
<title>AdsAuthService</title>
<ellipse fill="#fdb462" stroke="black" cx="651" cy="-104" rx="74.72" ry="18"/>
<text text-anchor="middle" x="651" y="-99.8" font-family="Times,serif" font-size="14.00">AdsAuthService</text>
</g>
<!-- AdsAuthService&#45;&gt;AmcModule -->
<g id="edge4" class="edge">
<title>AdsAuthService&#45;&gt;AmcModule</title>
<path fill="none" stroke="black" d="M684.74,-120.12C684.74,-120.12 684.74,-151.77 684.74,-151.77"/>
<polygon fill="black" stroke="black" points="681.24,-151.77 684.74,-161.77 688.24,-151.77 681.24,-151.77"/>
</g>
<!-- AutomatedService -->
<g id="node6" class="node">
<title>AutomatedService</title>
<ellipse fill="#fdb462" stroke="black" cx="475" cy="-104" rx="82.8" ry="18"/>
<text text-anchor="middle" x="475" y="-99.8" font-family="Times,serif" font-size="14.00">AutomatedService</text>
</g>
<!-- AutomatedService&#45;&gt;AmcModule -->
<g id="edge5" class="edge">
<title>AutomatedService&#45;&gt;AmcModule</title>
<path fill="none" stroke="black" d="M475,-122.31C475,-142.15 475,-171 475,-171 475,-171 633.59,-171 633.59,-171"/>
<polygon fill="black" stroke="black" points="633.59,-174.5 643.59,-171 633.59,-167.5 633.59,-174.5"/>
</g>
<!-- ExecutionsService -->
<g id="node7" class="node">
<title>ExecutionsService</title>
<ellipse fill="#fdb462" stroke="black" cx="291" cy="-104" rx="82.8" ry="18"/>
<text text-anchor="middle" x="291" y="-99.8" font-family="Times,serif" font-size="14.00">ExecutionsService</text>
</g>
<!-- ExecutionsService&#45;&gt;AmcModule -->
<g id="edge6" class="edge">
<title>ExecutionsService&#45;&gt;AmcModule</title>
<path fill="none" stroke="black" d="M291,-122.01C291,-144.49 291,-180 291,-180 291,-180 633.49,-180 633.49,-180"/>
<polygon fill="black" stroke="black" points="633.49,-183.5 643.49,-180 633.49,-176.5 633.49,-183.5"/>
</g>
<!-- WorkflowsService -->
<g id="node8" class="node">
<title>WorkflowsService</title>
<ellipse fill="#fdb462" stroke="black" cx="107" cy="-104" rx="83.37" ry="18"/>
<text text-anchor="middle" x="107" y="-99.8" font-family="Times,serif" font-size="14.00">WorkflowsService</text>
</g>
<!-- WorkflowsService&#45;&gt;AmcModule -->
<g id="edge7" class="edge">
<title>WorkflowsService&#45;&gt;AmcModule</title>
<path fill="none" stroke="black" d="M107,-122.03C107,-146.98 107,-189 107,-189 107,-189 633.41,-189 633.41,-189"/>
<polygon fill="black" stroke="black" points="633.41,-192.5 643.41,-189 633.41,-185.5 633.41,-192.5"/>
</g>
<!-- ReportsModule&#45;&gt;AppModule -->
<g id="edge10" class="edge">
<title>ReportsModule&#45;&gt;AppModule</title>
<path fill="none" stroke="black" d="M2077,-198.11C2077,-217.34 2077,-245 2077,-245 2077,-245 1983.94,-245 1983.94,-245"/>
<polygon fill="black" stroke="black" points="1983.94,-241.5 1973.94,-245 1983.94,-248.5 1983.94,-241.5"/>
</g>
<!-- AppService -->
<g id="node11" class="node">
<title>AppService</title>
<ellipse fill="#fdb462" stroke="black" cx="1944" cy="-180" rx="56.74" ry="18"/>
<text text-anchor="middle" x="1944" y="-175.8" font-family="Times,serif" font-size="14.00">AppService</text>
</g>
<!-- AppService&#45;&gt;AppModule -->
<g id="edge11" class="edge">
<title>AppService&#45;&gt;AppModule</title>
<path fill="none" stroke="black" d="M1932,-197.76C1932,-197.76 1932,-216.81 1932,-216.81"/>
<polygon fill="black" stroke="black" points="1928.5,-216.81 1932,-226.81 1935.5,-216.81 1928.5,-216.81"/>
</g>
<!-- AuthService -->
<g id="node13" class="node">
<title>AuthService</title>
<ellipse fill="#fdb462" stroke="black" cx="1150" cy="-180" rx="59.11" ry="18"/>
<text text-anchor="middle" x="1150" y="-175.8" font-family="Times,serif" font-size="14.00">AuthService</text>
</g>
<!-- AuthService&#45;&gt;AuthModule -->
<g id="edge13" class="edge">
<title>AuthService&#45;&gt;AuthModule</title>
<path fill="none" stroke="black" d="M1100.36,-170C1008.94,-170 823.18,-170 823.18,-170 823.18,-170 823.18,-132.03 823.18,-132.03"/>
<polygon fill="black" stroke="black" points="826.68,-132.03 823.18,-122.03 819.68,-132.03 826.68,-132.03"/>
</g>
<!-- S3Service -->
<g id="node15" class="node">
<title>S3Service</title>
<ellipse fill="#fdb462" stroke="black" cx="1413" cy="-180" rx="50.38" ry="18"/>
<text text-anchor="middle" x="1413" y="-175.8" font-family="Times,serif" font-size="14.00">S3Service</text>
</g>
<!-- S3Service&#45;&gt;AwsModule -->
<g id="edge15" class="edge">
<title>S3Service&#45;&gt;AwsModule</title>
<path fill="none" stroke="black" d="M1413,-161.8C1413,-155.97 1413,-151 1413,-151 1413,-151 906.52,-151 906.52,-151 906.52,-151 906.52,-132.04 906.52,-132.04"/>
<polygon fill="black" stroke="black" points="910.02,-132.04 906.52,-122.04 903.02,-132.04 910.02,-132.04"/>
</g>
<!-- AxiosService -->
<g id="node17" class="node">
<title>AxiosService</title>
<ellipse fill="#fdb462" stroke="black" cx="1666" cy="-180" rx="63.12" ry="18"/>
<text text-anchor="middle" x="1666" y="-175.8" font-family="Times,serif" font-size="14.00">AxiosService</text>
</g>
<!-- AxiosService&#45;&gt;AxiosModule -->
<g id="edge17" class="edge">
<title>AxiosService&#45;&gt;AxiosModule</title>
<path fill="none" stroke="black" d="M1666,-161.97C1666,-141.23 1666,-110 1666,-110 1666,-110 1061.74,-110 1061.74,-110"/>
<polygon fill="black" stroke="black" points="1061.74,-106.5 1051.74,-110 1061.74,-113.5 1061.74,-106.5"/>
</g>
<!-- ReportsService -->
<g id="node18" class="node">
<title>ReportsService</title>
<ellipse fill="#fdb462" stroke="black" cx="2077" cy="-104" rx="70.06" ry="18"/>
<text text-anchor="middle" x="2077" y="-99.8" font-family="Times,serif" font-size="14.00">ReportsService</text>
</g>
<!-- ReportsService&#45;&gt;ReportsModule -->
<g id="edge21" class="edge">
<title>ReportsService&#45;&gt;ReportsModule</title>
<path fill="none" stroke="black" d="M2107.93,-120.49C2107.93,-120.49 2107.93,-151.95 2107.93,-151.95"/>
<polygon fill="black" stroke="black" points="2104.43,-151.95 2107.93,-161.95 2111.43,-151.95 2104.43,-151.95"/>
</g>
</g>
</svg>
